HIERARCHY
ROOT Hips
{
	OFFSET -14.64140 90.27770 -84.91600
	CHANNELS 6 Xposition Yposition Zposition Zrotation Xrotation Yrotation
	JOINT Spine
	{
		OFFSET 0.00000 13.20850 -1.60436
		CHANNELS 3 Zrotation Xrotation Yrotation
		JOINT Spine1
		{
			OFFSET 0.00000 8.61716 0.00000
			CHANNELS 3 Zrotation Xrotation Yrotation
			JOINT Spine2
			{
				OFFSET 0.00000 8.61717 0.00000
				CHANNELS 3 Zrotation Xrotation Yrotation
				JOINT Spine3
				{
					OFFSET 0.00000 8.61717 0.00000
					CHANNELS 3 Zrotation Xrotation Yrotation
					JOINT Neck
					{
						OFFSET 0.00000 11.07920 1.10792
						CHANNELS 3 Zrotation Xrotation Yrotation
						JOINT Neck1
						{
							OFFSET 0.00000 7.08032 0.00000
							CHANNELS 3 Zrotation Xrotation Yrotation
							JOINT Head
							{
								OFFSET 0.00000 7.08031 0.00000
								CHANNELS 3 Zrotation Xrotation Yrotation
								End site
								{
									OFFSET 0.00000 0.00000 0.00000
								}
							}
						}
					}
					JOINT RightShoulder
					{
						OFFSET -0.01000 7.91373 5.19711
						CHANNELS 3 Zrotation Xrotation Yrotation
						JOINT RightArm
						{
							OFFSET -18.41580 0.00000 0.00000
							CHANNELS 3 Zrotation Xrotation Yrotation
							JOINT RightForeArm
							{
								OFFSET -29.11090 0.00000 0.00000
								CHANNELS 3 Zrotation Xrotation Yrotation
								JOINT RightHand
								{
									OFFSET -24.65040 0.00000 0.00000
									CHANNELS 3 Zrotation Xrotation Yrotation
									JOINT RightHandThumb1
									{
										OFFSET -5.35114 -0.85590 3.97906
										CHANNELS 3 Zrotation Xrotation Yrotation
										JOINT RightHandThumb2
										{
											OFFSET -4.52789 0.00000 0.00000
											CHANNELS 3 Zrotation Xrotation Yrotation
											JOINT RightHandThumb3
											{
												OFFSET -2.46976 0.00000 0.00000
												CHANNELS 3 Zrotation Xrotation Yrotation
												End site
												{
													OFFSET 0.00000 0.00000 0.00000
												}
											}
										}
									}
									JOINT RightHandIndex1
									{
										OFFSET -14.26970 0.00000 2.88139
										CHANNELS 3 Zrotation Xrotation Yrotation
										JOINT RightHandIndex2
										{
											OFFSET -5.48836 0.00000 0.00000
											CHANNELS 3 Zrotation Xrotation Yrotation
											JOINT RightHandIndex3
											{
												OFFSET -3.01859 0.00000 0.00000
												CHANNELS 3 Zrotation Xrotation Yrotation
												End site
												{
													OFFSET 0.00000 0.00000 0.00000
												}
											}
										}
									}
									JOINT RightHandMiddle1
									{
										OFFSET -14.26970 0.00000 -0.09147
										CHANNELS 3 Zrotation Xrotation Yrotation
										JOINT RightHandMiddle2
										{
											OFFSET -6.17441 0.00000 0.00000
											CHANNELS 3 Zrotation Xrotation Yrotation
											JOINT RightHandMiddle3
											{
												OFFSET -3.56743 0.00000 0.00000
												CHANNELS 3 Zrotation Xrotation Yrotation
												End site
												{
													OFFSET 0.00000 0.00000 0.00000
												}
											}
										}
									}
									JOINT RightHandRing1
									{
										OFFSET -12.69180 0.00000 -3.06433
										CHANNELS 3 Zrotation Xrotation Yrotation
										JOINT RightHandRing2
										{
											OFFSET -5.62556 0.00000 0.00000
											CHANNELS 3 Zrotation Xrotation Yrotation
											JOINT RightHandRing3
											{
												OFFSET -3.56744 0.00000 0.00000
												CHANNELS 3 Zrotation Xrotation Yrotation
												End site
												{
													OFFSET 0.00000 0.00000 0.00000
												}
											}
										}
									}
									JOINT RightHandPinky1
									{
										OFFSET -11.11390 0.00000 -6.03719
										CHANNELS 3 Zrotation Xrotation Yrotation
										JOINT RightHandPinky2
										{
											OFFSET -4.52789 0.00000 0.00000
											CHANNELS 3 Zrotation Xrotation Yrotation
											JOINT RightHandPinky3
											{
												OFFSET -2.46976 0.00000 0.00000
												CHANNELS 3 Zrotation Xrotation Yrotation
												End site
												{
													OFFSET 0.00000 0.00000 0.00000
												}
											}
										}
									}
								}
							}
						}
					}
					JOINT LeftShoulder
					{
						OFFSET 0.01000 7.91373 5.19711
						CHANNELS 3 Zrotation Xrotation Yrotation
						JOINT LeftArm
						{
							OFFSET 18.41580 0.00000 0.00000
							CHANNELS 3 Zrotation Xrotation Yrotation
							JOINT LeftForeArm
							{
								OFFSET 29.11090 0.00000 0.00000
								CHANNELS 3 Zrotation Xrotation Yrotation
								JOINT LeftHand
								{
									OFFSET 24.65040 0.00000 0.00000
									CHANNELS 3 Zrotation Xrotation Yrotation
									JOINT LeftHandThumb1
									{
										OFFSET 5.35114 -0.85590 3.97906
										CHANNELS 3 Zrotation Xrotation Yrotation
										JOINT LeftHandThumb2
										{
											OFFSET 4.52789 0.00000 0.00000
											CHANNELS 3 Zrotation Xrotation Yrotation
											JOINT LeftHandThumb3
											{
												OFFSET 2.46977 0.00000 0.00000
												CHANNELS 3 Zrotation Xrotation Yrotation
												End site
												{
													OFFSET 0.00000 0.00000 0.00000
												}
											}
										}
									}
									JOINT LeftHandIndex1
									{
										OFFSET 14.26970 0.00000 2.88139
										CHANNELS 3 Zrotation Xrotation Yrotation
										JOINT LeftHandIndex2
										{
											OFFSET 5.48836 0.00000 0.00000
											CHANNELS 3 Zrotation Xrotation Yrotation
											JOINT LeftHandIndex3
											{
												OFFSET 3.01859 0.00000 0.00000
												CHANNELS 3 Zrotation Xrotation Yrotation
												End site
												{
													OFFSET 0.00000 0.00000 0.00000
												}
											}
										}
									}
									JOINT LeftHandMiddle1
									{
										OFFSET 14.26970 0.00000 -0.09147
										CHANNELS 3 Zrotation Xrotation Yrotation
										JOINT LeftHandMiddle2
										{
											OFFSET 6.17440 0.00000 0.00000
											CHANNELS 3 Zrotation Xrotation Yrotation
											JOINT LeftHandMiddle3
											{
												OFFSET 3.56744 0.00000 0.00000
												CHANNELS 3 Zrotation Xrotation Yrotation
												End site
												{
													OFFSET 0.00000 0.00000 0.00000
												}
											}
										}
									}
									JOINT LeftHandRing1
									{
										OFFSET 12.69180 0.00000 -3.06433
										CHANNELS 3 Zrotation Xrotation Yrotation
										JOINT LeftHandRing2
										{
											OFFSET 5.62556 0.00000 0.00000
											CHANNELS 3 Zrotation Xrotation Yrotation
											JOINT LeftHandRing3
											{
												OFFSET 3.56744 0.00000 0.00000
												CHANNELS 3 Zrotation Xrotation Yrotation
												End site
												{
													OFFSET 0.00000 0.00000 0.00000
												}
											}
										}
									}
									JOINT LeftHandPinky1
									{
										OFFSET 11.11390 0.00000 -6.03719
										CHANNELS 3 Zrotation Xrotation Yrotation
										JOINT LeftHandPinky2
										{
											OFFSET 4.52789 0.00000 0.00000
											CHANNELS 3 Zrotation Xrotation Yrotation
											JOINT LeftHandPinky3
											{
												OFFSET 2.46976 0.00000 0.00000
												CHANNELS 3 Zrotation Xrotation Yrotation
												End site
												{
													OFFSET 0.00000 0.00000 0.00000
												}
											}
										}
									}
								}
							}
						}
					}
					JOINT pCube4
					{
						OFFSET 0.00000 10.91090 1.10792
						CHANNELS 3 Zrotation Xrotation Yrotation
						End site
						{
							OFFSET 0.00000 0.00000 0.00000
						}
					}
				}
			}
		}
	}
	JOINT RightUpLeg
	{
		OFFSET -9.98441 0.00000 0.00000
		CHANNELS 3 Zrotation Xrotation Yrotation
		JOINT RightLeg
		{
			OFFSET 0.00000 -42.11790 0.00000
			CHANNELS 3 Zrotation Xrotation Yrotation
			JOINT RightFoot
			{
				OFFSET 0.00000 -45.00020 -0.00001
				CHANNELS 3 Zrotation Xrotation Yrotation
				JOINT RightForeFoot
				{
					OFFSET 0.00000 -3.74820 0.00000
					CHANNELS 3 Zrotation Xrotation Yrotation
					JOINT RightToeBase
					{
						OFFSET 0.00000 0.06325 14.43120
						CHANNELS 3 Zrotation Xrotation Yrotation
						End site
						{
							OFFSET 0.00000 0.00000 0.00000
						}
					}
				}
			}
		}
	}
	JOINT LeftUpLeg
	{
		OFFSET 9.98441 0.00000 0.00000
		CHANNELS 3 Zrotation Xrotation Yrotation
		JOINT LeftLeg
		{
			OFFSET 0.00000 -42.11800 0.00000
			CHANNELS 3 Zrotation Xrotation Yrotation
			JOINT LeftFoot
			{
				OFFSET 0.00000 -45.00070 0.00000
				CHANNELS 3 Zrotation Xrotation Yrotation
				JOINT LeftForeFoot
				{
					OFFSET 0.00000 -3.74824 0.00000
					CHANNELS 3 Zrotation Xrotation Yrotation
					JOINT LeftToeBase
					{
						OFFSET 0.00000 0.06325 14.43110
						CHANNELS 3 Zrotation Xrotation Yrotation
						End site
						{
							OFFSET 0.00000 0.00000 0.00000
						}
					}
				}
			}
		}
	}
}
MOTION
Frames: 4
Frame Time: 0.050000
0.01910283427261835 -0.04271183628760851 0.02162707219655393 0.03803264299559425 0.011223113792120341 0.006806784229885204 -0.05140672019566267 3.1344375545374543 -1.2698709250177318 -0.4848920170900729 3.385714760426194 0.27067566214906935 -0.4743423769640554 -1.260873816136502 -1.6605469174232896 -0.817690581224447 -0.6467923411722526 -0.7346415679698612 -1.4814640923392353 10.908964866138774 2.2900073339800464 0.15741466377971639 -0.5851337523388445 5.687075477183497 -0.5941049731499444 -15.426131229653846 0.49197572036801596 -1.855962715592718 1.4012194909136162 -12.854915634148036 70.53102759877596 5.8493632597047975 14.33464450923582 -0.8875093524614531 8.715320902122148 83.39944098547174 21.252759395015296 -0.4235866835943141 -2.6907650619740795 4.532845986761901 -0.1669470376786637 -1.6115842877559752 -0.03476686885350829 0.002171219448757136 -56.26057778523156 -0.0014795086449941608 -0.030302836070965157 -56.18734435082999 -38.814675662589465 -0.003279514129540614 0.027032625517023432 0.0022690526075884857 -0.03459011849359699 0.003480818762642244 -0.029410911868439207 0.02162977797963547 -0.018029548136417894 -36.694960652931826 -0.049347356651894284 -0.012562484071726655 -0.024982984541058698 -0.029763561146497995 0.0018795753771153007 -0.04047255692480062 -0.02409133346094697 0.03681616170001503 -19.738986503029526 0.016749355036241146 -0.027834342329122446 -0.023628974032497137 0.010969556397841375 0.033375349913776504 -0.04629540157294692 -0.024930181887386292 0.04697688629868577 24.079033169732714 0.023052075075725823 -0.023344800002960457 28.896191522526898 0.028592161354821573 0.04119567120696731 28.896085800645324 -0.02466643148182645 0.004775406865332467 7.871817492096524 2.0599455782513907 11.242157065792705 -63.433378974144226 13.39856549413622 -36.64696401125316 11.93832356426124 -7.891370255312888 -70.31632886338387 -19.43713536193195 -0.09446603859335802 2.243427468204239 -0.48279696710390074 0.061095714787083324 -8.117714339183326 0.04212838607888087 -0.02810721327138412 44.60828040224662 -0.007355654300698384 -0.027029384757445072 44.53290252827038 12.496522872555381 -0.015754685610284418 0.0028604549934996846 -0.018484496501964934 0.013642623636873972 -0.009691206311827657 -0.03310552190984502 -0.019476579673491964 0.04764249083515792 11.07895704983576 0.01173089304618644 0.018618170309486367 0.014740418907807026 -0.04994071332103106 0.015421416275686271 -0.007995007902239821 -0.02822255643264032 0.008522523254046274 4.78663961591076 0.016941227743520283 -0.046756281747562974 0.045224385840318994 0.0405584927700873 0.037722541453054356 -0.04163008939874638 0.0018673155720220845 0.035747359140537886 -5.608776580356212 -0.040052175992644365 -0.00882807722578689 -6.732142350833318 0.007281348507152924 0.014362137671791298 -6.744414506082511 0.04389291397425481 0.04902651648205027 0.04413683505210281 -0.04259382397295418 0.009339198178005161 8.064050350496831 3.4784155082850456 -19.21949454337922 -0.04822053062637609 10.36807182278818 0.00573482227689797 -5.592592545241646 -15.656029206936264 3.228824812386117 -0.02274161459678417 -0.02365681721212985 0.039148351336668955 -0.01347235689833093 4.653438837437353 -0.009850257170852526 12.455931275999854 -8.259770450632782 6.855048468939662 -0.036836065024101604 46.408451843209825 -0.0019705588847807043 -4.316573678516822 -14.779892164141412 -3.8523850841521075 0.01889797667190085 -0.04805133938037879 -0.012426117556536637 -0.0028462059050075364 -10.77220219404537 0.03777283422879964 
-0.018878077415045096 0.010260906679909141 0.03828690221944148 0.03553412062479963 -0.044338918900612076 -0.016770586755186688 -0.1608431491492298 3.3177571477468017 -1.267933793607433 -0.4903156149665903 3.35875215780872 0.31991522612145146 -0.5373357201730445 -1.1520852537241941 -1.7608037688810239 -0.8241602486786004 -0.6361049419240243 -0.7752127140723748 -1.4865958189311883 10.669845804648045 2.4680477180602276 0.0780757887755109 -0.6355390582274443 5.962514438532937 -0.6160254249911545 -15.62857866569479 0.513473469028411 -1.6772375407787505 1.3894400062977375 -12.7355979543467 70.665185290939 5.0013755604688 13.949676679265881 -1.4651500513801141 8.62079214159575 82.55498700399295 20.68723416841854 -0.3799457636068874 -2.3699200254743222 4.485120494816944 -0.12600085954140725 -1.6033333556977274 0.039157473279526886 0.008531079999155084 -56.27488331968557 -0.013883128878523547 -0.021721764461895932 -56.20547627433707 -38.79129884777509 -0.0041943353694139165 0.005461240684115424 0.021244162079911935 0.006258307688183305 0.029956847793479787 0.012770597295489558 -0.014293670190261978 0.01568926570436114 -36.726206406574114 0.006594970086833452 -0.039860991129452364 0.04912990798831452 -0.010263483671515774 0.02920098785164658 -0.048492816752008915 -0.031893514542426143 -0.018930365487422336 -19.791039334116192 0.0011982383644055892 0.031301133421557804 0.02386613419682043 0.03246630260507881 0.007613536946643138 -0.013509438087033036 -0.009983009767180976 0.005789802497431387 24.102189096537487 -0.0276891944325408 -0.0322801607933177 28.86117393451836 0.025603681882824088 -0.04269681127422832 28.882710275228664 -0.03177800425122814 -0.040986566147976716 7.680883114332377 1.9899411937820837 11.01809738606012 -63.39166881430705 14.110567541859426 -36.00564897981101 12.799048304153503 -8.561801066709602 -69.80477998474879 -18.500202464309098 -0.2890231715219815 2.5814672029189896 -0.4829535989974416 0.07488610070260003 -8.114475876830598 -0.01759523700898527 -0.015962244647714258 44.520651949707705 0.044462910189684714 -0.016269651357676333 44.56662680339084 12.461020248108156 0.026652160607174683 0.03990225414547921 -0.01088000909535278 0.012258231444712038 0.0014047055621075534 0.017285408095942836 0.010949985995630504 0.029566143915702517 11.09405617483108 0.006951371343243259 0.036413875241693996 -0.04788786766022517 -0.034271347618134995 0.016798838244612726 -0.017059895916717954 -0.013301518218276761 0.03583361873413381 4.7661026544258505 0.020827746455621413 -0.022366988419550305 0.01621171609498543 -0.0032821463485068255 0.01108158062085233 0.020195659259531096 0.04820864825002823 0.02685460581020517 -5.557164418574883 -0.04709453149849739 -0.021143768055706 -6.690109071966402 -0.02800671072076719 0.04454339308308486 -6.688233404436768 -0.0232975649166199 0.010972247551532989 0.021857930716839436 -0.0370747127344025 -0.047971493256885385 8.062659361190528 3.4979478408660936 -19.18646177927077 0.04156769536601882 10.348666974825615 0.03511566101836519 -5.595536116174403 -15.674950971901882 3.196680330149727 0.007935929952751499 -0.03626835702557306 -0.02478538259211301 -0.012663452328702645 4.663536806445797 -0.01584412925643255 12.439196708865921 -8.280151314214052 6.839190712539275 -0.021446187722198425 46.35094318484744 -0.008642005051620579 -4.362005905702788 -14.778239484034346 -3.7952344896146553 0.02883831465149363 -0.02013793888577588 0.03546009380193271 -0.03159134778282276 -10.739706942191635 -0.01916480349144042 
0.02012211905896079 -0.0028128084915520755 -0.0020228130773240834 0.02842495157402751 0.0216643300892347 -0.036268692258179434 -0.2810961389935718 3.357818533233727 -1.2581768859123004 -0.5257818408234248 3.321649512340068 0.29715511439686054 -0.455465404859978 -1.2169189726763758 -1.8371548370167388 -0.8545570399406985 -0.6575030107946382 -0.765601434723533 -1.56782455087655 10.572213789116619 2.551669566096698 0.11788763655939272 -0.7635662391284536 6.333091889508141 -0.6302739343673637 -15.757218042153905 0.5657038222157844 -1.5732896005323587 1.3922185936440914 -12.726621615031839 70.71298126686028 4.01538848743183 13.522579362693653 -2.301470211414226 8.657856885112208 81.16583812739913 20.9736320398591 -0.4017879439058849 -2.0877080948892917 4.506539266460661 -0.1163801733106882 -1.5947893929283923 -0.011004105524269954 -0.037808764302660405 -56.26252794678309 0.011527707559601235 -0.01377951267588752 -56.18957069379757 -38.726586224080265 -0.016429587789137327 0.011270088282194998 0.02922108147028553 -0.0040295180620786375 -0.038052806320270055 0.01571895091582913 0.03975934130538582 0.0015661459324385488 -36.67022638790889 0.011108981953887044 0.04829137414276544 -0.005258618598771426 -0.022716707391910243 -0.01889511688439167 0.02101537704498505 0.02255546116628494 -0.023362367107834042 -19.76612903187386 -0.022775582759464744 0.02122577734125446 0.03558650421403942 -0.024585824644399547 0.008746266405877032 -0.04694253908413717 -0.0072722637208755886 -0.0204625681927408 24.081062058114327 -0.04955541422678961 0.03832556873121121 28.855098657960475 -0.023907032169276796 -0.04988795918447429 28.829069204341852 0.047087187415686335 -0.049820602017161916 7.491775848767472 1.9857865318293364 10.956948460180985 -63.908255800974175 14.409845442477964 -35.26692859796961 11.601394739872319 -8.081428675693115 -68.2336078639983 -18.57005192805513 -0.25558555997945465 2.8369957722380748 -0.5227933388238929 0.07958825667817992 -8.139233870708594 0.04258142334340357 -0.0163619009483576 44.539688045431305 -0.011052606491276143 0.02251289897912105 44.55317146650529 12.46977576589116 0.037820400495838805 -0.019217487903295378 -0.01802017351010055 -0.02511407217598879 0.008920014231858566 0.008126880903774147 -0.014227159192348746 0.005615705069464423 11.078346299373491 -0.044130376691411476 0.031493298208926226 -0.04030708614464446 0.007935630867417 0.035531978759661166 0.012418283098467722 0.04501242401742609 0.0073018510480101165 4.7834061225455144 -0.04159412652189195 0.04295508835796163 -0.03208955737586159 -0.008574287655226016 0.02727311338506705 0.017793548940403806 -0.04400425453287496 -0.04923982287644537 -5.556328918741941 -0.03434266662622178 -0.01208692028986704 -6.75459308531606 0.03127909710591944 -0.023903656134458322 -6.689620806406923 0.009560072374467496 -0.038610039157675705 0.004391641322409841 0.013371134872823189 -0.03576534490899771 8.035357595385578 3.4876830396794993 -19.201389712109545 -0.014179264778462217 10.36088637025272 -0.015303006397195628 -5.586243199705372 -15.659401906714933 3.162400345815728 0.01929793498108896 -0.011217991727149 0.03887205958417136 0.03035298074411287 4.739673231663869 -0.039335299487290185 12.490095284361011 -8.257303084648429 6.900372820713003 0.00820087849161395 46.386900359544555 -0.009848375491589059 -4.326559469961027 -14.750664783019149 -3.8349177479181806 0.028922272898799103 0.04716316335950079 0.04068353694671867 0.02485520815137582 -10.776134537935569 -0.03139036913085557 
0.03787067245367839 0.009627343792804192 0.017234518766900388 0.027629505240874874 -0.038005154172768896 -0.035761990465880515 -0.3674125698768789 3.4218620417073375 -1.2279340291809775 -0.46376574745542865 3.330760152825925 0.2981244681606784 -0.47370842447033784 -1.1972212860647549 -1.8670081581551132 -0.9899273630823294 -0.6760401690266654 -0.8238587422523663 -1.542764617589701 10.458856821610887 2.651072058686591 0.10286756653075575 -0.820850258531558 6.557122413128194 -0.6539373920094614 -15.828749395891577 0.6024493927727878 -1.7973917378224398 1.3759337127415345 -12.708133686367162 70.50890458228211 1.3868336590796224 13.771880154450207 -3.676235976183907 8.598102166872561 79.46295153982463 21.194940932049967 -0.40252503842942255 -1.7254543734339196 4.511912151280825 -0.16237354071334453 -1.5896389204815957 0.03672608184555991 -0.02909278343174875 -56.24645448072169 -0.04448425141344153 -0.04627714299594306 -56.24540894776441 -38.76213009562772 0.041468116670917814 0.01999507505080248 -0.009208193446556196 -0.038052353984524015 0.02172974770632948 0.027736263305139123 0.03516667263255946 0.0012487302421564375 -36.691531788766255 0.01612716512975434 0.038576619866599084 0.022679611320826562 0.0275175698481004 0.012940748543215853 -0.0003967120110990209 0.017161188040311873 -0.01646893866494202 -19.766048280148837 0.037729691144575785 -0.0014127259772154707 -0.009284079006599257 -0.049807579849484834 -0.012570905308021435 -0.02473088149644721 0.035537003438339015 0.02676016901519739 24.10137135889373 0.014550145682082396 0.007947597448507529 28.84150028911665 0.010279318115220721 -0.02959368795148348 28.879878786069813 -0.02953878799456092 -0.003797850731040416 7.453864189491078 2.003539835539254 10.824196162191658 -64.5208178746795 13.616799293728794 -35.11566691912128 10.27229005797501 -7.20906353043927 -66.56815916324237 -18.729469555287814 -0.012454079011825395 2.83790569094083 -0.5023185151165732 0.024411627509082164 -8.124127262730298 0.018208424059240468 -0.00835233965617788 44.59537448405449 0.033180220216455426 0.009392804959269004 44.54773641346559 12.455628288924384 -0.04515368042322368 0.047692400689585385 0.01075820457979655 -0.017844255942295977 -0.012642444819900726 -0.018736339648287276 -0.02563325545485884 -0.01280366935403254 11.154157768993505 0.010224047819359233 0.007734027696565255 -0.046694626630580674 0.046406088999448154 0.03637477736696968 -0.006797186265215258 0.018686576839236066 -0.0187466971046045 4.757493272374822 0.010305671271922516 -0.037183430387406576 0.006182991845363825 -0.010421960564098253 -0.018168430577606993 0.02657739689386526 0.013832425216921547 0.0041426300006911 -5.623899080926546 0.02801340651999901 -0.02182767798853151 -6.710496531880586 0.002273482510800192 0.0374710071404263 -6.687313352074216 -0.044537033636819996 0.041244944747175535 0.026074633757975113 0.028520062242885932 0.04863662647505117 8.090213861240134 3.5118859320235685 -19.18697651979157 -0.038290749200437235 10.398512379861588 0.04908306933725727 -5.642387218388339 -15.651273440715812 3.17048449446209 0.034497362413841784 -0.023865520450261378 -0.0046639682000360755 -0.04015435013407794 4.6967675555144055 0.024046615962629376 12.433443320935602 -8.227537788947288 6.8701774463890795 -0.022211407010903468 46.37845619161166 0.03765186126415562 -4.28139635887495 -14.783081257877775 -3.8075293332614404 -0.031736327067489876 -0.013711666369330158 0.026952040608481866 0.0020834147286972085 -10.766005516598568 0.021609712869953616 
